{"scene":0,"scenes":[{"nodes":[0]}],"asset":{"version":"2.0","generator":"https://github.com/mikedh/trimesh"},"accessors":[{"componentType":5125,"type":"SCALAR","bufferView":0,"count":540,"max":[119],"min":[0]},{"componentType":5126,"type":"VEC3","byteOffset":0,"bufferView":1,"count":120,"max":[4.5,3.5,4.78000020980835],"min":[-4.949999809265137,-3.5,0.0]},{"componentType":5121,"normalized":true,"type":"VEC4","byteOffset":0,"bufferView":2,"count":120,"max":[150,137,112,255],"min":[96,58,44,255]},{"componentType":5126,"count":120,"type":"VEC3","byteOffset":0,"bufferView":3,"max":[0.929970920085907,0.929970920085907,1.0],"min":[-0.929970920085907,-0.929970920085907,-1.0]}],"meshes":[{"name":"Settlement","extras":{"shape":"extents"},"primitives":[{"attributes":{"POSITION":1,"COLOR_0":2,"NORMAL":3},"indices":0,"mode":4}]}],"nodes":[{"name":"world","children":[1]},{"name":"Settlement","mesh":0}],"buffers":[{"uri":"data:application/octet-stream;base64,","byteLength":2160},{"uri":"data:application/octet-stream;base64,","byteLength":1440},{"uri":"data:application/octet-stream;base64,","byteLength":480},{"uri":"data:application/octet-stream;base64,","byteLength":1440}],"bufferViews":[{"buffer":0,"byteOffset":0,"byteLength":2160},{"buffer":1,"byteOffset":0,"byteLength":1440},{"buffer":2,"byteOffset":0,"byteLength":480},{"buffer":3,"byteOffset":0,"byteLength":1440}]}